<?xml version="1.0" encoding="UTF-8"?>
<svg width="385px" height="113px" viewBox="0 0 385 113" version="1.1" xmlns="http://www.w3.org/2000/svg" xmlns:xlink="http://www.w3.org/1999/xlink">
    <!-- Generator: Sketch 51.3 (57544) - http://www.bohemiancoding.com/sketch -->
    <title>logo</title>
    <desc>Created with Sketch.</desc>
    <defs></defs>
    <g id="Page-1" stroke="none" stroke-width="1" fill="none" fill-rule="evenodd">
        <g id="Desktop-HD" transform="translate(-510.000000, -267.000000)">
            <g id="Group-2" transform="translate(518.000000, 279.000000)">
                <g id="element" fill="#FF7D0D">
                    <path d="M0,0 L23,0 L23,23 L0,23 L0,0 Z" id="heart-"></path>
                </g>
                <g id="element" transform="translate(6.000000, 4.000000)">
                    <path d="M0,0 L23,0 L23,23 L0,23 L0,0 Z" id="heart-" fill="#E57210"></path>
                    <path d="M7,6 L30,6 L30,29 L7,29 L7,6 Z" id="heart-" fill="#FFFFFF"></path>
                </g>
                <g id="Group" transform="translate(18.000000, 16.000000)" fill="#283543" fill-rule="nonzero">
                    <g id="default-monochrome">
                        <g id="e061b37d-9f14-4c08-803b-16d6f741c7c5" transform="translate(0.111666, 0.194396)">
                            <path d="M4.88575585,0.713798508 L42.1622095,0.713798508 C43.5658586,0.713798508 44.6026449,0.88835206 45.2725683,1.23745916 C45.9424917,1.55482926 46.3891074,2.06262141 46.6124152,2.76083561 C46.835723,3.49078683 46.9473769,4.42702861 46.9473769,5.56956095 C46.9473769,6.7438303 46.835723,7.66420357 46.6124152,8.33068077 C46.3891074,9.02889497 46.0222445,9.50495011 45.5118267,9.75884619 C44.6823977,10.1714273 43.5339575,10.3777179 42.0665062,10.3777179 L29.2901094,10.3777179 L29.2901094,43.8919998 C29.2901094,44.9075841 29.2582082,45.6692723 29.194406,46.1770645 C29.1306038,46.6531196 28.9232465,47.2243858 28.5723343,47.890863 C28.2533231,48.5256032 27.6631525,48.9699213 26.8018223,49.2238174 C25.9404922,49.5094505 24.8239532,49.652267 23.4522052,49.652267 C22.0804572,49.652267 20.9798687,49.5094505 20.1504397,49.2238174 C19.3210107,48.9699213 18.7308401,48.5256032 18.3799278,47.890863 C18.0609166,47.2243858 17.8695099,46.6372511 17.8057077,46.129459 C17.7419055,45.6216668 17.7100044,44.8599786 17.7100044,43.8443943 L17.7100044,10.3777179 L4.83790417,10.3777179 C3.40235397,10.3777179 2.34961715,10.2190328 1.67969372,9.90166273 C1.00977029,9.55255563 0.563154669,9.02889497 0.339846859,8.33068077 C0.116539049,7.60072955 0.00488514443,6.66448777 0.00488514443,5.52195543 C0.00488514443,4.34768609 0.116539049,3.42731281 0.339846859,2.76083561 C0.563154669,2.06262141 0.945968057,1.58656627 1.48828702,1.33267019 C2.28581492,0.920089069 3.41830452,0.713798508 4.88575585,0.713798508 Z M76.6632662,27.8965471 C76.6632662,30.6259299 75.9773922,32.64123 74.6056442,33.9424474 C73.2338962,35.2436647 71.7185932,35.8942734 70.0597352,35.8942734 L54.2208313,35.8942734 C54.2208313,37.1320168 54.9545569,38.1793381 56.4220083,39.0362374 C57.8894596,39.8931366 59.3569109,40.3215863 60.8243622,40.3215863 C63.4083526,40.3215863 65.450024,40.0518217 66.9493764,39.5122925 L67.6671515,39.2266594 C68.7517895,38.7506043 69.6450207,38.5125767 70.3468453,38.5125767 C71.7823955,38.5125767 73.0105884,39.5122925 74.0314241,41.5117241 C74.6056442,42.7177305 74.8927542,43.7333148 74.8927542,44.558477 C74.8927542,48.5256032 70.139488,50.5091663 60.6329555,50.5091663 C57.3152395,50.5091663 54.3803368,49.9379001 51.8282476,48.7953678 C49.2442572,47.6528354 47.2504375,46.161196 45.8467884,44.3204494 C43.0075891,40.7024304 41.5879895,36.6718302 41.5879895,32.2286489 C41.5879895,26.6429352 43.406353,22.1680169 47.0430802,18.8038939 C50.7117085,15.4397709 55.2576175,13.7577094 60.6808072,13.7577094 C66.9015248,13.7577094 71.4633843,15.947563 74.3663858,20.3272703 C75.8976394,22.612335 76.6632662,25.1354272 76.6632662,27.8965471 Z M54.0772762,29.8483731 L62.4991708,29.8483731 C64.1899299,29.8483731 65.0353095,29.1342904 65.0353095,27.706125 C65.0353095,26.6905407 64.6524961,25.8653785 63.8868693,25.2306383 C63.0893414,24.6276351 61.9728024,24.3261335 60.5372522,24.3261335 C59.0698009,24.3261335 57.6342506,24.9132682 56.2306016,26.0875375 C54.7950514,27.2618069 54.0772762,28.5154188 54.0772762,29.8483731 Z M103.890868,18.2326277 C104.177978,15.757141 105.94849,14.5193976 109.202404,14.5193976 C110.956966,14.5193976 112.248961,14.6463456 113.07839,14.9002417 C113.93972,15.1858748 114.52989,15.6619299 114.848902,16.3284071 C115.199814,16.9948843 115.407171,17.582019 115.470973,18.0898112 C115.534776,18.5976033 115.566677,19.3592915 115.566677,20.3748758 L115.566677,43.7015778 C115.566677,44.7171621 115.534776,45.4788503 115.470973,45.9866424 C115.407171,46.4944346 115.215764,47.0815693 114.896753,47.7480465 C114.258731,48.9223158 112.727477,49.5094505 110.302993,49.5094505 C107.878508,49.5094505 106.251551,49.2079489 105.422122,48.6049457 C104.592693,48.0019425 104.114176,47.1291748 103.986572,45.9866424 C102.327714,48.3351811 99.5682672,49.5094505 95.7082322,49.5094505 C91.8481972,49.5094505 88.2593217,47.7480465 84.9416057,44.2252384 C81.6557908,40.7341674 80.0128833,36.6559617 80.0128833,31.9906213 C80.0128833,27.3570179 81.6717413,23.2946807 84.9894574,19.8036097 C88.3071734,16.3125386 91.9598511,14.5670031 95.9474906,14.5670031 C97.446843,14.5670031 98.8345416,14.8367677 100.110586,15.3762969 C101.35473,15.915826 102.21606,16.4236182 102.694577,16.8996733 C103.204994,17.3439914 103.603758,17.7883096 103.890868,18.2326277 Z M91.7365433,32.0858323 C91.7365433,33.5774718 92.3107634,34.9104261 93.4592036,36.0846955 C94.6076437,37.2589648 96.0112928,37.8460995 97.6701508,37.8460995 C99.3290089,37.8460995 100.700757,37.2430963 101.785395,36.03709 C102.901934,34.8310836 103.460203,33.5139977 103.460203,32.0858323 C103.460203,30.6259299 102.933835,29.277107 101.881098,28.0393636 C100.828361,26.8016202 99.4247122,26.1827486 97.6701508,26.1827486 C95.8836884,26.1827486 94.4481382,26.8016202 93.3635002,28.0393636 C92.2788623,29.277107 91.7365433,30.6259299 91.7365433,32.0858323 Z M132.458318,19.184738 C134.563791,16.011037 137.083979,14.4241866 140.018882,14.4241866 C144.580741,14.4241866 147.97821,16.3601441 150.211288,20.2320593 C150.689805,19.5655821 151.279976,18.8673679 151.9818,18.1374167 C152.683625,17.4074655 153.784213,16.6140402 155.283566,15.757141 C156.814819,14.8685047 158.377974,14.4241866 159.97303,14.4241866 C163.545955,14.4241866 166.54466,15.8047465 168.969144,18.5658663 C171.361728,21.2952491 172.55802,25.8019044 172.55802,32.0858323 L172.55802,43.7491833 C172.55802,44.7965046 172.526119,45.5740613 172.462317,46.0818535 C172.398514,46.5896456 172.191157,47.1767803 171.840245,47.8432575 C171.266025,49.0492638 169.543365,49.652267 166.672264,49.652267 C163.864966,49.652267 162.142306,49.0175268 161.504283,47.7480465 C161.217173,47.0815693 161.025767,46.4944346 160.930063,45.9866424 C160.866261,45.4788503 160.83436,44.7171621 160.83436,43.7015778 L160.83436,32.0382268 C160.83436,28.1663116 159.462612,26.2303541 156.719116,26.2303541 C155.155961,26.2303541 154.087274,26.7381462 153.513054,27.7537305 C152.970735,28.8010518 152.699575,30.2450858 152.699575,32.0858323 L152.699575,43.7491833 C152.699575,44.8282416 152.651724,45.6057983 152.55602,46.0818535 C152.492218,46.5896456 152.284861,47.1767803 151.933949,47.8432575 C151.327827,49.0492638 149.589217,49.652267 146.718116,49.652267 C143.910818,49.652267 142.188158,49.0175268 141.550135,47.7480465 C141.231124,47.0815693 141.039718,46.4944346 140.975915,45.9866424 C140.912113,45.4788503 140.880212,44.7171621 140.880212,43.7015778 L140.880212,32.0382268 C140.880212,28.1663116 139.492514,26.2303541 136.717116,26.2303541 C134.037423,26.2303541 132.697576,28.1663116 132.697576,32.0382268 L132.697576,43.8443943 C132.697576,44.8599786 132.665675,45.6216668 132.601873,46.129459 C132.53807,46.6372511 132.330713,47.2243858 131.979801,47.890863 C131.309877,49.0651323 129.571267,49.652267 126.763968,49.652267 C123.95667,49.652267 122.23401,49.0492638 121.595988,47.8432575 C121.276976,47.1767803 121.08557,46.5896456 121.021768,46.0818535 C120.957965,45.6057983 120.926064,44.8282416 120.926064,43.7491833 L120.926064,20.3272703 C120.926064,19.279949 120.957965,18.5023923 121.021768,17.9946001 C121.08557,17.486808 121.292927,16.9314103 121.643839,16.3284071 C122.313763,15.1224008 123.908819,14.5193976 126.429007,14.5193976 C128.917294,14.5193976 130.544251,14.9161102 131.309877,15.7095355 C132.075504,16.5029607 132.458318,17.6613615 132.458318,19.184738 Z M179.257254,43.5111557 L178.683034,42.7494675 C177.502693,41.3530391 176.912522,40.0835587 176.912522,38.9410263 C176.912522,37.798494 177.885506,36.2909861 179.831474,34.4185025 C180.948013,33.3711812 182.128355,32.8475205 183.372498,32.8475205 C184.616642,32.8475205 186.355252,33.9583159 188.588331,36.1799065 C189.226353,36.9415947 190.119584,37.6556775 191.268024,38.3221547 C192.416464,39.0203689 193.485152,39.369476 194.474086,39.369476 C198.621231,39.369476 200.694804,37.6874145 200.694804,34.3232915 C200.694804,33.2759702 200.136534,32.4190709 199.019995,31.7525937 C197.871555,31.0543795 196.451956,30.5465874 194.761196,30.2292173 C193.070437,29.9118472 191.236123,29.4199235 189.258254,28.7534463 C187.280385,28.0552321 185.446071,27.2459384 183.755312,26.3255651 C182.064552,25.3734548 180.644953,23.8976839 179.496513,21.8982523 C178.379974,19.8670837 177.821704,17.423334 177.821704,14.5670031 C177.821704,10.663351 179.273205,7.25162245 182.176206,4.33181758 C185.111109,1.44374972 189.098748,-0.000284203622 194.139125,-0.000284203622 C196.818818,-0.000284203622 199.275204,0.332954395 201.508282,0.999431593 C203.709459,1.6976458 205.224762,2.39586001 206.054191,3.09407421 L207.729,4.37942309 C209.132649,5.68064048 209.834474,6.77556731 209.834474,7.66420357 C209.834474,8.55283983 209.292155,9.77471469 208.207517,11.3298282 C206.708164,13.5514188 205.14501,14.6622141 203.518053,14.6622141 C202.59292,14.6622141 201.42853,14.217896 200.024881,13.3292597 C199.897276,13.2340487 199.642067,13.0118897 199.259254,12.6627826 C198.87644,12.2819384 198.541479,11.9804368 198.254369,11.7582778 C197.297335,11.1870116 196.101043,10.9013785 194.665493,10.9013785 C193.198042,10.9013785 191.985799,11.2504856 191.028766,11.9486998 C190.071732,12.646914 189.593216,13.5990243 189.593216,14.8050307 C189.593216,16.0427741 190.167436,17.0266213 191.315876,17.7565726 C192.432415,18.5182608 193.852015,19.0419214 195.574675,19.3275545 C197.265434,19.5814506 199.115699,19.9940317 201.125469,20.5652979 C203.135239,21.1048271 204.985504,21.7713043 206.676263,22.5647295 C208.367022,23.3581547 209.786622,24.7545831 210.935062,26.7540147 C212.083502,28.7217093 212.657722,31.1495905 212.657722,34.0376584 C212.657722,36.9257262 212.067552,39.464687 210.88721,41.6545406 C209.73877,43.8761313 208.223467,45.5740613 206.341301,46.7483307 C202.736475,49.1286064 198.87644,50.3187442 194.761196,50.3187442 C192.655723,50.3187442 190.661903,50.0648481 188.779737,49.557056 C186.897571,49.0175268 185.382268,48.3827866 184.233828,47.6528354 C181.873146,46.22467 180.214288,44.8441101 179.257254,43.5111557 Z M217.012225,59.1733698 L217.012225,20.2320593 C217.012225,19.216475 217.044126,18.4706553 217.107928,17.9946001 C217.17173,17.486808 217.363137,16.9314103 217.682148,16.3284071 C218.288269,15.1224008 219.771671,14.5193976 222.132354,14.5193976 C224.524937,14.5193976 226.135944,14.8208992 226.965373,15.4239024 C227.762901,16.0269055 228.241417,16.8996733 228.400923,18.0422056 C230.091682,15.725404 232.755425,14.5670031 236.392152,14.5670031 C240.02888,14.5670031 243.4742,16.2808016 246.728114,19.7083986 C249.982028,23.1359957 251.608985,27.1189903 251.608985,31.6573827 C251.608985,36.164038 249.997978,40.1311642 246.775966,43.5587612 C243.522052,46.9863582 240.076731,48.7001567 236.440004,48.7001567 C232.771376,48.7001567 230.107633,47.6845724 228.448775,45.6534038 L228.448775,59.0781588 C228.448775,60.1254801 228.416874,60.8871683 228.353071,61.3632235 C228.289269,61.8392786 228.081912,62.4105448 227.731,63.077022 C227.411988,63.7117622 226.853719,64.1560803 226.056191,64.4099764 C225.226762,64.6956095 224.126173,64.838426 222.754425,64.838426 C221.382678,64.838426 220.282089,64.6956095 219.45266,64.4099764 C218.623231,64.1560803 218.03306,63.7117622 217.682148,63.077022 C217.363137,62.4740188 217.17173,61.9186212 217.107928,61.410829 C217.044126,60.9347739 217.012225,60.1889541 217.012225,59.1733698 Z M230.267138,27.7537305 C229.246303,28.9597369 228.735885,30.2768228 228.735885,31.7049882 C228.735885,33.1331536 229.262253,34.434371 230.31499,35.6086404 C231.335826,36.7829097 232.675672,37.3700444 234.33453,37.3700444 C235.961487,37.3700444 237.333235,36.7987782 238.449774,35.6562459 C239.598215,34.4819765 240.172435,33.1648906 240.172435,31.7049882 C240.172435,30.2450858 239.630116,28.9279999 238.545478,27.7537305 C237.492741,26.5794612 236.105042,25.9923265 234.382382,25.9923265 C232.659722,25.9923265 231.287974,26.5794612 230.267138,27.7537305 Z M254.958602,32.0858323 C254.958602,26.7540147 256.840768,22.3584389 260.605099,18.8991049 C264.369431,15.4397709 268.660131,13.7101039 273.477199,13.7101039 C278.294268,13.7101039 282.553067,15.4397709 286.253596,18.8991049 C289.954126,22.3267019 291.80439,26.7064092 291.80439,32.0382268 C291.80439,35.7197199 290.847357,39.0045004 288.93329,41.8925682 C287.019223,44.7488991 284.690442,46.8594102 281.946946,48.2241016 C279.20345,49.557056 276.3483,50.2235332 273.381496,50.2235332 C270.446593,50.2235332 267.591444,49.5094505 264.816047,48.0812851 C262.040649,46.6213826 259.711868,44.4791345 257.829702,41.6545406 C255.915635,38.8299468 254.958602,35.6403774 254.958602,32.0858323 Z M268.979142,36.8939892 C270.414692,37.9730476 271.866193,38.5125767 273.333644,38.5125767 C274.801096,38.5125767 276.268547,37.957179 277.735998,36.8463837 C279.235351,35.7355884 279.985027,34.0852639 279.985027,31.8954103 C279.985027,29.7372936 279.283203,28.1187061 277.879553,27.0396478 C276.507805,25.9605895 275.008453,25.4210603 273.381496,25.4210603 C271.78644,25.4210603 270.303038,25.976458 268.93129,27.0872533 C267.527641,28.1980487 266.825817,29.8325046 266.825817,31.9906213 C266.825817,34.1487379 267.543592,35.7831939 268.979142,36.8939892 Z M320.180433,14.9002417 C321.009862,15.1858748 321.711686,15.6460614 322.285906,16.2808016 C322.828225,16.9155418 323.099385,17.9469946 323.099385,19.37516 C323.099385,20.8033255 322.68467,22.3584389 321.855241,24.0405004 C320.993911,25.7225619 319.765718,26.5635927 318.170663,26.5635927 C317.341234,26.5635927 316.559656,26.3890391 315.825931,26.039932 C315.092205,25.6908249 314.119221,25.5162714 312.906978,25.5162714 C311.726637,25.5162714 310.610098,25.9288525 309.557361,26.7540147 C308.504624,27.610914 307.978256,28.6423668 307.978256,29.8483731 L307.978256,43.8443943 C307.978256,44.8599786 307.946355,45.6216668 307.882553,46.129459 C307.81875,46.6372511 307.595443,47.2243858 307.212629,47.890863 C306.542706,49.0651323 304.804095,49.652267 301.996797,49.652267 C299.859422,49.652267 298.328169,49.2714229 297.403036,48.5097347 C296.669311,47.8749945 296.254596,46.9228842 296.158893,45.6534038 C296.158893,45.2090857 296.158893,44.558477 296.158893,43.7015778 L296.158893,20.3272703 C296.158893,19.279949 296.206744,18.5023923 296.302448,17.9946001 C296.36625,17.486808 296.541706,16.9314103 296.828816,16.3284071 C297.466838,15.1224008 299.2214,14.5193976 302.0925,14.5193976 C304.772194,14.5193976 306.447003,15.0271898 307.116926,16.0427741 C307.595443,16.7409883 307.834701,17.4709395 307.834701,18.2326277 C308.058009,17.9152576 308.37702,17.5344135 308.791735,17.0900954 C309.23835,16.6457772 310.147532,16.0586426 311.51928,15.3286913 C312.891028,14.5670031 314.10327,14.186159 315.156007,14.186159 C316.208744,14.186159 317.101975,14.2337645 317.835701,14.3289755 C318.537525,14.4559236 319.319103,14.6463456 320.180433,14.9002417 Z M347.312332,26.3255651 L342.957829,26.039932 L342.957829,35.2277962 C342.957829,36.4338026 343.149236,37.3065704 343.53205,37.8460995 C343.882962,38.3856287 344.584786,38.6553933 345.637523,38.6553933 C346.69026,38.6553933 347.503738,38.6871303 348.077959,38.7506043 C348.620277,38.8140783 349.210448,39.0203689 349.84847,39.369476 C350.869306,39.9407421 351.379724,41.4323816 351.379724,43.8443943 C351.379724,46.6372511 350.757652,48.3510496 349.513509,48.9857898 C348.843585,49.2714229 348.253415,49.461845 347.742997,49.557056 C347.232579,49.62053 346.482903,49.652267 345.493968,49.652267 C340.836405,49.652267 337.311332,48.6049457 334.918748,46.5103031 C332.494263,44.4156605 331.282021,40.8769839 331.282021,35.8942734 L331.282021,26.039932 C330.420691,26.1668801 329.511509,26.2303541 328.554476,26.2303541 C327.565541,26.2303541 326.752063,25.84951 326.11404,25.0878217 C325.444117,24.3578705 325.109155,23.0725216 325.109155,21.2317751 C325.109155,19.4227656 325.220809,18.1056797 325.444117,17.2805174 C325.667425,16.4553552 325.986436,15.8682205 326.40115,15.5191134 C327.102975,14.9478472 327.996206,14.6622141 329.080844,14.6622141 L331.282021,14.9002417 L331.282021,8.04504768 C331.282021,7.02946338 331.313922,6.26777515 331.377724,5.759983 C331.441527,5.28392786 331.648884,4.76026721 331.999796,4.18900104 C332.605917,3.07820571 334.328578,2.52280804 337.167777,2.52280804 C340.198383,2.52280804 342.016747,3.34797029 342.622868,4.99829478 C342.846176,5.69650899 342.957829,6.82317282 342.957829,8.37828628 L342.957829,14.9002417 C344.903797,14.7415567 346.387199,14.6622141 347.408035,14.6622141 C348.39697,14.6622141 349.146646,14.6939512 349.657064,14.7574252 C350.167482,14.8208992 350.757652,15.0271898 351.427576,15.3762969 C352.607917,15.947563 353.198088,17.6613615 353.198088,20.5176924 C353.198088,23.3105492 352.591966,25.0243477 351.379724,25.6590879 C350.709801,25.944721 350.11963,26.1192745 349.609212,26.1827486 C349.098794,26.2779596 348.333167,26.3255651 347.312332,26.3255651 Z" id="Shape"></path>
                        </g>
                    </g>
                </g>
            </g>
        </g>
    </g>
</svg>