<?xml version="1.0" encoding="UTF-8"?>
<svg width="152px" height="139px" viewBox="0 0 152 139" version="1.1" xmlns="http://www.w3.org/2000/svg" xmlns:xlink="http://www.w3.org/1999/xlink">
    <!-- Generator: Sketch 53.2 (72643) - https://sketchapp.com -->
    <title>ts_icon</title>
    <desc>Created with Sketch.</desc>
    <g id="Page-1" stroke="none" stroke-width="1" fill="none" fill-rule="evenodd">
        <g id="logo" fill-rule="nonzero">
            <g id="element" fill="#FF7D0D">
                <polygon id="heart-" points="0 0 97 0 97 97 0 97"></polygon>
            </g>
            <g id="element" transform="translate(25.000000, 17.000000)">
                <polygon id="heart-" fill="#E57210" points="0 0 96.6 0 96.6 96.7586207 0 96.7586207"></polygon>
                <polygon id="heart-" fill="#FFFFFF" points="29.4 25.2413793 126 25.2413793 126 122 29.4 122"></polygon>
            </g>
        </g>
        <path d="M74.7981651,52 L134.35474,52 C136.59735,52 138.253823,52.2782101 139.324159,52.8346303 C140.394495,53.3404669 141.108053,54.1498055 141.464832,55.2626459 C141.821611,56.42607 142,57.9182879 142,59.7392996 C142,61.610895 141.821611,63.077821 141.464832,64.1400778 C141.108053,65.2529183 140.521916,66.0116731 139.706422,66.4163424 C138.381244,67.0739299 136.546381,67.4027238 134.201835,67.4027238 L113.788991,67.4027238 L113.788991,120.819066 C113.788991,122.437743 113.738022,123.651751 113.636086,124.46109 C113.534149,125.219844 113.202854,126.13035 112.642202,127.192607 C112.132518,128.20428 111.189603,128.912451 109.813456,129.317121 C108.437309,129.772374 106.653415,130 104.461774,130 C102.270133,130 100.511723,129.772374 99.1865443,129.317121 C97.8613659,128.912451 96.9184506,128.20428 96.3577982,127.192607 C95.8481141,126.13035 95.5423037,125.194553 95.440367,124.385214 C95.3384302,123.575875 95.2874618,122.361868 95.2874618,120.743191 L95.2874618,67.4027238 L74.7217125,67.4027238 C72.4281346,67.4027238 70.7461774,67.1498054 69.675841,66.6439689 C68.6055046,66.0875486 67.891947,65.2529183 67.5351682,64.1400778 C67.1783894,62.9766537 67,61.4844358 67,59.6634241 C67,57.7918288 67.1783894,56.3249027 67.5351682,55.2626459 C67.891947,54.1498055 68.5035678,53.3910506 69.3700306,52.9863813 C70.6442406,52.3287938 72.4536187,52 74.7981651,52 Z" id="Shape-path" fill="#283543"></path>
    </g>
</svg>