<?xml version="1.0" encoding="UTF-8"?>
<svg width="849px" height="694px" viewBox="0 0 849 694" version="1.1" xmlns="http://www.w3.org/2000/svg" xmlns:xlink="http://www.w3.org/1999/xlink">
    <!-- Generator: Sketch 53.2 (72643) - https://sketchapp.com -->
    <title>verif</title>
    <desc>Created with Sketch.</desc>
    <g id="Page-1" stroke="none" stroke-width="1" fill="none" fill-rule="evenodd">
        <g id="Group-2" transform="translate(9.000000, 9.000000)">
            <g id="Group" fill="#FFFFFF">
                <path d="M164.46315,266.08329 L916.051026,266.138272 C921.573317,266.138665 926.04992,270.615268 926.050313,276.137559 L926.055286,305.917422 C926.055679,311.440269 921.578846,315.917741 916.055998,315.918135 C916.055523,315.918135 916.055048,315.918135 916.054573,315.918135 L164.466697,315.861728 C158.944406,315.861335 154.467803,311.384732 154.46741,305.862441 L154.462437,276.082578 C154.462044,270.559731 158.938877,266.082259 164.461725,266.081865 C164.4622,266.081865 164.462675,266.081865 164.46315,266.081865 Z" id="Rectangle" transform="translate(540.258861, 291.000000) rotate(-45.000000) translate(-540.258861, -291.000000) "></path>
                <path d="M-30.1936469,397.093987 L349.959867,397.065473 C355.482714,397.06508 359.960186,401.541913 359.960579,407.064761 C359.960579,407.065236 359.960579,407.065711 359.960579,407.066186 L359.955607,436.846049 C359.955214,442.36834 355.478611,446.844943 349.95632,446.845336 L-30.197194,446.875275 C-35.7200415,446.875669 -40.197513,442.398835 -40.1979066,436.875988 C-40.1979066,436.875513 -40.1979066,436.875038 -40.1979066,436.874563 L-40.1929342,407.0947 C-40.1925407,401.572409 -35.7159378,397.095806 -30.1936468,397.095412 Z" id="Rectangle" transform="translate(159.881336, 421.970374) rotate(45.000000) translate(-159.881336, -421.970374) "></path>
            </g>
            <g id="Group" transform="translate(0.000000, 94.000000)" fill="#00FF88">
                <path d="M164.46315,266.08329 L916.051026,266.138272 C921.573317,266.138665 926.04992,270.615268 926.050313,276.137559 L926.055286,305.917422 C926.055679,311.440269 921.578846,315.917741 916.055998,315.918135 C916.055523,315.918135 916.055048,315.918135 916.054573,315.918135 L164.466697,315.861728 C158.944406,315.861335 154.467803,311.384732 154.46741,305.862441 L154.462437,276.082578 C154.462044,270.559731 158.938877,266.082259 164.461725,266.081865 C164.4622,266.081865 164.462675,266.081865 164.46315,266.081865 Z" id="Rectangle" transform="translate(540.258861, 291.000000) rotate(-45.000000) translate(-540.258861, -291.000000) "></path>
                <path d="M-30.1936469,397.093987 L349.959867,397.065473 C355.482714,397.06508 359.960186,401.541913 359.960579,407.064761 C359.960579,407.065236 359.960579,407.065711 359.960579,407.066186 L359.955607,436.846049 C359.955214,442.36834 355.478611,446.844943 349.95632,446.845336 L-30.197194,446.875275 C-35.7200415,446.875669 -40.197513,442.398835 -40.1979066,436.875988 C-40.1979066,436.875513 -40.1979066,436.875038 -40.1979066,436.874563 L-40.1929342,407.0947 C-40.1925407,401.572409 -35.7159378,397.095806 -30.1936468,397.095412 Z" id="Rectangle" transform="translate(159.881336, 421.970374) rotate(45.000000) translate(-159.881336, -421.970374) "></path>
            </g>
        </g>
    </g>
</svg>